{
    "asset" : {
        "generator" : "Khronos glTF Blender I/O v3.3.32",
        "version" : "2.0"
    },
    "scene" : 0,
    "scenes" : [
        {
            "name" : "Scene",
            "nodes" : [
                0
            ]
        }
    ],
    "nodes" : [
        {
            "mesh" : 0,
            "name" : "Blazer_Z_Final",
            "rotation" : [
                0.70710688829422,
                0,
                0,
                0.7071066498756409
            ]
        }
    ],
    "animations" : [
        {
            "channels" : [
                {
                    "sampler" : 0,
                    "target" : {
                        "node" : 0,
                        "path" : "translation"
                    }
                },
                {
                    "sampler" : 1,
                    "target" : {
                        "node" : 0,
                        "path" : "rotation"
                    }
                },
                {
                    "sampler" : 2,
                    "target" : {
                        "node" : 0,
                        "path" : "scale"
                    }
                }
            ],
            "name" : "Blazer_Z_Final",
            "samplers" : [
                {
                    "input" : 5,
                    "interpolation" : "LINEAR",
                    "output" : 6
                },
                {
                    "input" : 5,
                    "interpolation" : "LINEAR",
                    "output" : 7
                },
                {
                    "input" : 5,
                    "interpolation" : "LINEAR",
                    "output" : 8
                }
            ]
        }
    ],
    "materials" : [
        {
            "doubleSided" : true,
            "name" : "DiorBlazerMat",
            "normalTexture" : {
                "index" : 0
            },
            "pbrMetallicRoughness" : {
                "baseColorTexture" : {
                    "index" : 1
                },
                "metallicRoughnessTexture" : {
                    "index" : 2
                }
            }
        }
    ],
    "meshes" : [
        {
            "name" : "mesh.006",
            "primitives" : [
                {
                    "attributes" : {
                        "POSITION" : 0,
                        "NORMAL" : 1,
                        "TEXCOORD_0" : 2,
                        "COLOR_0" : 3
                    },
                    "indices" : 4,
                    "material" : 0
                }
            ]
        }
    ],
    "textures" : [
        {
            "sampler" : 0,
            "source" : 0
        },
        {
            "sampler" : 0,
            "source" : 1
        },
        {
            "sampler" : 0,
            "source" : 2
        }
    ],
    "images" : [
        {
            "mimeType" : "image/jpeg",
            "name" : "Fake_Thick7_Checkers UV_Normal_Raw",
            "uri" : "Fake_Thick7_Checkers%20UV_Normal_Raw.jpg"
        },
        {
            "mimeType" : "image/jpeg",
            "name" : "Fake_Thick7_Checkers UV_BaseColor_sRGB",
            "uri" : "Fake_Thick7_Checkers%20UV_BaseColor_sRGB.jpg"
        },
        {
            "mimeType" : "image/jpeg",
            "name" : "Fake_Thick7_Checkers UV_OcclusionRoughnessMetallic_Raw",
            "uri" : "Fake_Thick7_Checkers%20UV_OcclusionRoughnessMetallic_Raw.jpg"
        }
    ],
    "accessors" : [
        {
            "bufferView" : 0,
            "componentType" : 5126,
            "count" : 18882,
            "max" : [
                27.341785430908203,
                14.868302345275879,
                28.2154541015625
            ],
            "min" : [
                -23.859821319580078,
                -13.387025833129883,
                -35.641448974609375
            ],
            "type" : "VEC3"
        },
        {
            "bufferView" : 1,
            "componentType" : 5126,
            "count" : 18882,
            "type" : "VEC3"
        },
        {
            "bufferView" : 2,
            "componentType" : 5126,
            "count" : 18882,
            "type" : "VEC2"
        },
        {
            "bufferView" : 3,
            "componentType" : 5123,
            "count" : 18882,
            "normalized" : true,
            "type" : "VEC4"
        },
        {
            "bufferView" : 4,
            "componentType" : 5123,
            "count" : 101796,
            "type" : "SCALAR"
        },
        {
            "bufferView" : 5,
            "componentType" : 5126,
            "count" : 152,
            "max" : [
                5.066666666666666
            ],
            "min" : [
                0.03333333333333333
            ],
            "type" : "SCALAR"
        },
        {
            "bufferView" : 6,
            "componentType" : 5126,
            "count" : 152,
            "type" : "VEC3"
        },
        {
            "bufferView" : 7,
            "componentType" : 5126,
            "count" : 152,
            "type" : "VEC4"
        },
        {
            "bufferView" : 8,
            "componentType" : 5126,
            "count" : 152,
            "type" : "VEC3"
        }
    ],
    "bufferViews" : [
        {
            "buffer" : 0,
            "byteLength" : 226584,
            "byteOffset" : 0,
            "target" : 34962
        },
        {
            "buffer" : 0,
            "byteLength" : 226584,
            "byteOffset" : 226584,
            "target" : 34962
        },
        {
            "buffer" : 0,
            "byteLength" : 151056,
            "byteOffset" : 453168,
            "target" : 34962
        },
        {
            "buffer" : 0,
            "byteLength" : 151056,
            "byteOffset" : 604224,
            "target" : 34962
        },
        {
            "buffer" : 0,
            "byteLength" : 203592,
            "byteOffset" : 755280,
            "target" : 34963
        },
        {
            "buffer" : 0,
            "byteLength" : 608,
            "byteOffset" : 958872
        },
        {
            "buffer" : 0,
            "byteLength" : 1824,
            "byteOffset" : 959480
        },
        {
            "buffer" : 0,
            "byteLength" : 2432,
            "byteOffset" : 961304
        },
        {
            "buffer" : 0,
            "byteLength" : 1824,
            "byteOffset" : 963736
        }
    ],
    "samplers" : [
        {
            "magFilter" : 9729,
            "minFilter" : 9987
        }
    ],
    "buffers" : [
        {
            "byteLength" : 965560,
            "uri" : "DiorBlazer_Export2.bin"
        }
    ]
}
